# xmcd CD database file
#
# Track frame offsets:
#	150
#	20399
#	44275
#	45598
#	96877
#	126498
#	162057
#	164718
#	194640
#	195381
#	227059
#	230169
#	246622
#
# Disc length: 3721 seconds
#
# Revision: 0
# Processed by: cddbd v1.5.2PL0 Copyright (c) Steve Scherf et al.
# Submitted via: CDex 1.70beta2
#
DISCID=b80e870d
DTITLE=David Landon Band, The - Live at Lou's
DYEAR=2007
DGENRE=Blues
TTITLE0=Waiting on You
TTITLE1=Sugar Sweet
TTITLE2=Intro to Stormy Monday
TTITLE3=Stormy Monday
TTITLE4=Born Under A Bad Sign
TTITLE5=Mary Had a Little Lamb
TTITLE6=Intro to Hey Joe
TTITLE7=Hey Joe
TTITLE8=Intro to February Rain
TTITLE9=February Rain
TTITLE10=Intro to Jammin Up In Heaven
TTITLE11=Jammin Up In Heaven
TTITLE12=Tore Down
EXTD=YEAR: 2007
EXTT0=
EXTT1=
EXTT2=
EXTT3=
EXTT4=
EXTT5=
EXTT6=
EXTT7=
EXTT8=
EXTT9=
EXTT10=
EXTT11=
EXTT12=
PLAYORDER=
